<svg width="300" height="300" viewBox="0 0 300 300" fill="none" xmlns="http://www.w3.org/2000/svg">
<rect width="300" height="300" fill="white"/>
<path d="M185.497 72.0479C187.043 69.2639 189.286 67.4079 192.225 66.4799C195.163 65.5519 198.798 65.0879 203.129 65.0879C207.614 65.0879 211.171 65.4746 213.801 66.2479C216.585 67.0212 218.595 67.9492 219.833 69.0319C221.225 70.1146 222.23 71.7386 222.849 73.9039C223.777 76.3786 224.241 80.3226 224.241 85.7359V214.496C224.241 218.208 224.086 220.915 223.777 222.616C223.622 224.317 222.926 226.328 221.689 228.648C219.523 232.824 213.491 234.912 203.593 234.912C197.561 234.912 193.385 234.448 191.065 233.52C188.745 232.592 186.811 231.123 185.265 229.112C150.465 182.712 127.574 152.397 116.593 138.168V214.496C116.593 218.208 116.438 220.915 116.129 222.616C115.974 224.317 115.278 226.328 114.041 228.648C111.875 232.824 105.843 234.912 95.9447 234.912C86.3554 234.912 80.4781 232.824 78.3127 228.648C77.0754 226.328 76.3021 224.24 75.9927 222.384C75.8381 220.528 75.7607 217.821 75.7607 214.264V84.8079C75.7607 78.9306 76.4567 74.6772 77.8487 72.0479C79.3954 69.2639 81.6381 67.4079 84.5767 66.4799C87.5154 65.5519 91.3047 65.0879 95.9447 65.0879C100.585 65.0879 104.219 65.5519 106.849 66.4799C109.633 67.2532 111.566 68.1812 112.649 69.2639C113.267 69.7279 115.046 71.7386 117.985 75.2959C150.619 119.685 172.427 148.995 183.409 163.224V84.8079C183.409 78.9306 184.105 74.6772 185.497 72.0479Z" fill="#E9007E"/>
</svg>
