<svg width="654" height="246" viewBox="0 0 654 246" fill="none" xmlns="http://www.w3.org/2000/svg">
<path d="M142.796 238.659V216.707H148.396L152.652 230.019C152.78 230.403 152.908 230.841 153.036 231.331C153.164 231.822 153.281 232.291 153.388 232.739C153.516 233.187 153.612 233.582 153.676 233.923H153.932C153.975 233.603 154.049 233.219 154.156 232.771C154.263 232.323 154.369 231.854 154.476 231.363C154.604 230.873 154.732 230.414 154.86 229.987L159.148 216.707H164.652V238.659H161.1V226.627C161.1 225.817 161.111 224.974 161.132 224.099C161.153 223.225 161.175 222.446 161.196 221.763C161.217 221.081 161.228 220.643 161.228 220.451H160.972C160.929 220.686 160.823 221.091 160.652 221.667C160.503 222.222 160.343 222.819 160.172 223.459C160.001 224.099 159.841 224.654 159.692 225.123L155.244 238.659H152.076L147.628 225.155C147.5 224.75 147.361 224.27 147.212 223.715C147.063 223.161 146.913 222.595 146.764 222.019C146.615 221.443 146.487 220.921 146.38 220.451H146.124C146.145 220.963 146.156 221.593 146.156 222.339C146.177 223.086 146.199 223.843 146.22 224.611C146.241 225.358 146.252 226.03 146.252 226.627V238.659H142.796ZM186.21 239.043C183.949 239.043 181.986 238.627 180.322 237.795C178.68 236.963 177.41 235.705 176.514 234.019C175.64 232.334 175.202 230.222 175.202 227.683C175.202 225.123 175.64 223.011 176.514 221.347C177.41 219.662 178.68 218.403 180.322 217.571C181.986 216.739 183.949 216.323 186.21 216.323C188.514 216.323 190.488 216.739 192.13 217.571C193.773 218.403 195.032 219.662 195.906 221.347C196.802 223.011 197.25 225.123 197.25 227.683C197.25 230.222 196.802 232.334 195.906 234.019C195.032 235.705 193.773 236.963 192.13 237.795C190.488 238.627 188.514 239.043 186.21 239.043ZM186.21 236.003C187.384 236.003 188.418 235.843 189.314 235.523C190.232 235.203 191 234.713 191.618 234.051C192.258 233.39 192.738 232.558 193.058 231.555C193.4 230.553 193.57 229.39 193.57 228.067V227.363C193.57 225.998 193.4 224.814 193.058 223.811C192.738 222.809 192.258 221.977 191.618 221.315C191 220.654 190.232 220.163 189.314 219.843C188.418 219.523 187.384 219.363 186.21 219.363C185.058 219.363 184.024 219.523 183.106 219.843C182.21 220.163 181.442 220.654 180.802 221.315C180.184 221.977 179.714 222.809 179.394 223.811C179.074 224.814 178.914 225.998 178.914 227.363V228.067C178.914 229.39 179.074 230.553 179.394 231.555C179.714 232.558 180.184 233.39 180.802 234.051C181.442 234.713 182.21 235.203 183.106 235.523C184.024 235.843 185.058 236.003 186.21 236.003ZM207.783 238.659V216.707H213.383L217.639 230.019C217.767 230.403 217.895 230.841 218.023 231.331C218.151 231.822 218.269 232.291 218.375 232.739C218.503 233.187 218.599 233.582 218.663 233.923H218.919C218.962 233.603 219.037 233.219 219.143 232.771C219.25 232.323 219.357 231.854 219.463 231.363C219.591 230.873 219.719 230.414 219.847 229.987L224.135 216.707H229.639V238.659H226.087V226.627C226.087 225.817 226.098 224.974 226.119 224.099C226.141 223.225 226.162 222.446 226.183 221.763C226.205 221.081 226.215 220.643 226.215 220.451H225.959C225.917 220.686 225.81 221.091 225.639 221.667C225.49 222.222 225.33 222.819 225.159 223.459C224.989 224.099 224.829 224.654 224.679 225.123L220.231 238.659H217.063L212.615 225.155C212.487 224.75 212.349 224.27 212.199 223.715C212.05 223.161 211.901 222.595 211.751 222.019C211.602 221.443 211.474 220.921 211.367 220.451H211.111C211.133 220.963 211.143 221.593 211.143 222.339C211.165 223.086 211.186 223.843 211.207 224.611C211.229 225.358 211.239 226.03 211.239 226.627V238.659H207.783ZM261.728 239.043C260.064 239.043 258.592 238.798 257.312 238.307C256.054 237.795 255.062 237.07 254.336 236.131C253.611 235.193 253.248 234.073 253.248 232.771C253.248 231.278 253.632 230.094 254.4 229.219C255.19 228.345 256.171 227.737 257.344 227.395V227.267C256.32 226.798 255.467 226.19 254.784 225.443C254.102 224.697 253.76 223.662 253.76 222.339C253.76 221.038 254.102 219.939 254.784 219.043C255.488 218.147 256.459 217.475 257.696 217.027C258.955 216.558 260.416 216.323 262.08 216.323C263.68 216.323 265.088 216.569 266.304 217.059C267.542 217.55 268.502 218.254 269.184 219.171C269.888 220.067 270.24 221.123 270.24 222.339V223.011H266.912V222.595C266.891 221.785 266.678 221.123 266.272 220.611C265.867 220.099 265.302 219.726 264.576 219.491C263.851 219.235 262.998 219.107 262.016 219.107C261.334 219.107 260.694 219.182 260.096 219.331C259.499 219.459 258.976 219.673 258.528 219.971C258.102 220.249 257.771 220.611 257.536 221.059C257.302 221.507 257.184 222.03 257.184 222.627C257.184 223.417 257.376 224.078 257.76 224.611C258.144 225.123 258.656 225.507 259.296 225.763C259.936 226.019 260.619 226.147 261.344 226.147H263.424V228.867H261.44C260.63 228.867 259.862 228.974 259.136 229.187C258.411 229.379 257.824 229.742 257.376 230.275C256.928 230.787 256.704 231.523 256.704 232.483C256.704 233.379 256.918 234.105 257.344 234.659C257.771 235.214 258.368 235.619 259.136 235.875C259.926 236.131 260.843 236.259 261.888 236.259C263.019 236.259 263.947 236.121 264.672 235.843C265.419 235.566 265.974 235.139 266.336 234.563C266.72 233.987 266.912 233.283 266.912 232.451V226.147H273.056V228.899H270.24V232.355C270.24 233.742 269.92 234.937 269.28 235.939C268.64 236.942 267.691 237.71 266.432 238.243C265.174 238.777 263.606 239.043 261.728 239.043ZM296.29 238.659V216.707H307.938C309.154 216.707 310.22 216.931 311.138 217.379C312.055 217.806 312.77 218.425 313.282 219.235C313.815 220.046 314.082 220.995 314.082 222.083C314.082 222.915 313.922 223.673 313.602 224.355C313.303 225.038 312.876 225.614 312.322 226.083C311.788 226.553 311.18 226.905 310.498 227.139V227.267C311.287 227.438 311.991 227.758 312.61 228.227C313.25 228.675 313.751 229.273 314.114 230.019C314.498 230.745 314.69 231.619 314.69 232.643C314.69 234.03 314.38 235.171 313.762 236.067C313.164 236.963 312.364 237.625 311.362 238.051C310.359 238.457 309.218 238.659 307.938 238.659H296.29ZM299.874 235.587H307.65C308.631 235.587 309.431 235.331 310.05 234.819C310.69 234.286 311.01 233.433 311.01 232.259C311.01 231.555 310.871 230.958 310.594 230.467C310.338 229.955 309.943 229.571 309.41 229.315C308.876 229.038 308.204 228.899 307.394 228.899H299.874V235.587ZM299.874 225.891H307.106C307.788 225.891 308.375 225.763 308.866 225.507C309.356 225.251 309.73 224.889 309.986 224.419C310.263 223.95 310.402 223.427 310.402 222.851C310.402 221.806 310.114 221.038 309.538 220.547C308.983 220.035 308.247 219.779 307.33 219.779H299.874V225.891ZM322.758 238.659L331.366 216.707H335.942L344.582 238.659H340.742L338.79 233.571H328.39L326.438 238.659H322.758ZM329.542 230.531H337.606L335.142 224.099C335.078 223.907 334.982 223.641 334.854 223.299C334.726 222.958 334.588 222.585 334.438 222.179C334.31 221.774 334.172 221.369 334.022 220.963C333.894 220.537 333.777 220.153 333.67 219.811H333.478C333.35 220.217 333.19 220.697 332.998 221.251C332.806 221.806 332.614 222.339 332.422 222.851C332.252 223.363 332.102 223.779 331.974 224.099L329.542 230.531ZM353.808 238.659V216.707H365.456C366.672 216.707 367.739 216.931 368.656 217.379C369.574 217.806 370.288 218.425 370.8 219.235C371.334 220.046 371.6 220.995 371.6 222.083C371.6 222.915 371.44 223.673 371.12 224.355C370.822 225.038 370.395 225.614 369.84 226.083C369.307 226.553 368.699 226.905 368.016 227.139V227.267C368.806 227.438 369.51 227.758 370.128 228.227C370.768 228.675 371.27 229.273 371.632 230.019C372.016 230.745 372.208 231.619 372.208 232.643C372.208 234.03 371.899 235.171 371.28 236.067C370.683 236.963 369.883 237.625 368.88 238.051C367.878 238.457 366.736 238.659 365.456 238.659H353.808ZM357.392 235.587H365.168C366.15 235.587 366.95 235.331 367.568 234.819C368.208 234.286 368.528 233.433 368.528 232.259C368.528 231.555 368.39 230.958 368.112 230.467C367.856 229.955 367.462 229.571 366.928 229.315C366.395 229.038 365.723 228.899 364.912 228.899H357.392V235.587ZM357.392 225.891H364.624C365.307 225.891 365.894 225.763 366.384 225.507C366.875 225.251 367.248 224.889 367.504 224.419C367.782 223.95 367.92 223.427 367.92 222.851C367.92 221.806 367.632 221.038 367.056 220.547C366.502 220.035 365.766 219.779 364.848 219.779H357.392V225.891ZM388.512 238.659V229.635L379.968 216.707H384.064L390.336 226.435H390.496L396.704 216.707H400.64L392.096 229.635V238.659H388.512ZM421.383 238.659V216.707H426.983L431.239 230.019C431.367 230.403 431.495 230.841 431.623 231.331C431.751 231.822 431.869 232.291 431.975 232.739C432.103 233.187 432.199 233.582 432.263 233.923H432.519C432.562 233.603 432.637 233.219 432.743 232.771C432.85 232.323 432.957 231.854 433.063 231.363C433.191 230.873 433.319 230.414 433.447 229.987L437.735 216.707H443.239V238.659H439.687V226.627C439.687 225.817 439.698 224.974 439.719 224.099C439.741 223.225 439.762 222.446 439.783 221.763C439.805 221.081 439.815 220.643 439.815 220.451H439.559C439.517 220.686 439.41 221.091 439.239 221.667C439.09 222.222 438.93 222.819 438.759 223.459C438.589 224.099 438.429 224.654 438.279 225.123L433.831 238.659H430.663L426.215 225.155C426.087 224.75 425.949 224.27 425.799 223.715C425.65 223.161 425.501 222.595 425.351 222.019C425.202 221.443 425.074 220.921 424.967 220.451H424.711C424.733 220.963 424.743 221.593 424.743 222.339C424.765 223.086 424.786 223.843 424.807 224.611C424.829 225.358 424.839 226.03 424.839 226.627V238.659H421.383ZM454.846 238.659V216.707H458.43V238.659H454.846ZM470.027 238.659V216.707H473.611V235.555H484.555V238.659H470.027ZM494.083 238.659V216.707H497.667V227.651L508.131 216.707H512.547L504.099 225.539L512.771 238.659H508.547L501.667 228.067L497.667 231.747V238.659H494.083Z" fill="white"/>
<path d="M586.768 12.2959L649.408 141.752C652.037 147.011 653.352 150.955 653.352 153.584C653.352 159.152 648.867 164.179 639.896 168.664C634.637 171.293 630.461 172.608 627.368 172.608C624.429 172.608 621.955 171.912 619.944 170.52C618.088 169.128 616.696 167.659 615.768 166.112C614.995 164.565 613.835 162.245 612.288 159.152L600.224 134.096H535.96L523.896 159.152C522.349 162.245 521.112 164.488 520.184 165.88C519.411 167.272 518.019 168.741 516.008 170.288C514.152 171.68 511.677 172.376 508.584 172.376C505.645 172.376 501.547 171.061 496.288 168.432C487.317 164.101 482.832 159.152 482.832 153.584C482.832 150.955 484.147 147.011 486.776 141.752L549.416 12.0639C551.117 8.5066 553.669 5.64526 557.072 3.47993C560.629 1.3146 564.341 0.231934 568.208 0.231934C576.56 0.231934 582.747 4.25326 586.768 12.2959ZM567.976 67.9759L552.664 99.7599H583.52L567.976 67.9759Z" fill="white"/>
<path d="M470.104 141.52C472.424 147.088 473.584 151.109 473.584 153.584C473.584 159.461 468.79 164.411 459.2 168.432C454.251 170.597 450.229 171.68 447.136 171.68C444.197 171.68 441.723 170.984 439.712 169.592C437.856 168.045 436.464 166.499 435.536 164.952C433.989 162.013 427.957 148.016 417.44 122.96L410.248 123.424H381.016V149.64C381.016 153.197 380.861 155.904 380.552 157.76C380.397 159.461 379.701 161.472 378.464 163.792C376.299 167.968 370.267 170.056 360.368 170.056C349.541 170.056 343.2 167.195 341.344 161.472C340.416 158.843 339.952 154.821 339.952 149.408V20.6479C339.952 17.0906 340.029 14.4613 340.184 12.7599C340.493 10.9039 341.267 8.81593 342.504 6.49593C344.669 2.31993 350.701 0.231934 360.6 0.231934H410.712C424.323 0.231934 437.547 5.18126 450.384 15.0799C456.571 19.8746 461.675 26.3706 465.696 34.5679C469.718 42.7653 471.728 51.8906 471.728 61.9439C471.728 79.4213 465.928 93.8053 454.328 105.096C457.731 113.293 462.989 125.435 470.104 141.52ZM381.016 82.3599H410.712C415.197 82.3599 419.683 80.6586 424.168 77.2559C428.653 73.8533 430.896 68.7493 430.896 61.9439C430.896 55.1386 428.653 50.0346 424.168 46.6319C419.683 43.0746 415.043 41.2959 410.248 41.2959H381.016V82.3599Z" fill="white"/>
<path d="M287.152 1.39199C284.213 2.31999 281.971 4.02133 280.424 6.496C278.877 8.97066 278.104 13.224 278.104 19.256V90.248C278.104 101.229 275.32 110.896 269.752 119.248C264.184 127.6 255.755 131.776 244.464 131.776C238.123 131.776 232.632 130.461 227.992 127.832C223.352 125.203 219.872 121.723 217.552 117.392C212.912 108.885 210.592 99.9147 210.592 90.48V20.88C210.592 14.6933 209.664 9.82134 207.808 6.264C206.725 3.944 204.715 2.31999 201.776 1.39199C198.837 0.463997 194.893 0 189.944 0C184.995 0 181.051 0.463997 178.112 1.39199C175.173 2.31999 173.085 3.944 171.848 6.264C170.611 8.584 169.837 10.672 169.528 12.528C169.373 14.2293 169.296 16.936 169.296 20.648V90.48C169.296 111.205 175.56 129.765 188.088 146.16C194.12 154.203 198.038 159.656 207.627 164.605C217.371 169.554 227.216 173.072 238.971 173.072C266.29 173.072 269.288 159.888 279.032 155.093C279.032 158.267 279.597 163.045 280.728 165.427C280.92 165.831 281.128 166.224 281.352 166.605C283.517 170.317 289.317 172.173 298.752 172.173C308.341 172.173 314.296 170.162 316.616 166.141C317.853 163.976 318.549 162.042 318.704 160.341C319.013 158.485 319.168 153.856 319.168 150.453V90.944V20.88C319.168 17.9634 319.033 15.4509 318.764 13.3424C318.745 13.2215 318.725 13.1046 318.704 12.9919C318.697 12.9008 318.688 12.8092 318.678 12.717C318.574 12.007 318.454 11.3464 318.317 10.7355C318.159 10.0294 317.978 9.3896 317.776 8.816C317.157 6.65067 316.152 5.02667 314.76 3.944C313.368 2.86133 311.357 1.93333 308.728 1.16C306.099 0.386667 302.541 0 298.056 0C293.725 0 290.091 0.463997 287.152 1.39199Z" fill="white"/>
<path d="M109.736 7.42387C111.283 4.63987 113.525 2.78387 116.464 1.85588C119.403 0.92787 123.037 0.463867 127.368 0.463867C131.853 0.463867 135.411 0.850534 138.04 1.62387C140.824 2.3972 142.835 3.3252 144.072 4.40787C145.464 5.49054 146.469 7.11454 147.088 9.27988C148.016 11.7545 148.48 15.6985 148.48 21.1119V149.872C148.48 153.584 148.325 156.291 148.016 157.992C147.861 159.693 147.165 161.704 145.928 164.024C143.763 168.2 137.731 170.288 127.832 170.288C121.8 170.288 117.624 169.824 115.304 168.896C112.984 167.968 111.051 166.499 109.504 164.488C74.704 118.088 51.8133 87.7732 40.832 73.5439V149.872C40.832 153.584 40.6773 156.291 40.368 157.992C40.2133 159.693 39.5173 161.704 38.28 164.024C36.1147 168.2 30.0827 170.288 20.184 170.288C10.5947 170.288 4.71733 168.2 2.552 164.024C1.31467 161.704 0.541333 159.616 0.231999 157.76C0.077333 155.904 0 153.197 0 149.64V20.1839C0 14.3065 0.696 10.0532 2.088 7.42387C3.63467 4.63987 5.87733 2.78387 8.816 1.85588C11.7547 0.92787 15.544 0.463867 20.184 0.463867C24.824 0.463867 28.4587 0.92787 31.088 1.85588C33.872 2.62921 35.8053 3.55721 36.888 4.63987C37.5067 5.10387 39.2853 7.11454 42.224 10.6719C74.8587 55.0612 96.6667 84.3705 107.648 98.5999V20.1839C107.648 14.3065 108.344 10.0532 109.736 7.42387Z" fill="white"/>
</svg>
